<?xml version="1.0" encoding="UTF-8"?>
<svg id="Layer_2" data-name="Layer 2" xmlns="http://www.w3.org/2000/svg" viewBox="0 0 1024.01 276.742">
  <defs>
    <style>
      .cls-1 {
        fill: #ff00e4;
        stroke-width: 0px;
      }
    </style>
  </defs>
  <path class="cls-1" d="M875.907.036c14.186,0,27.589-.174,40.978.237,1.537.047,3.527,3.095,4.375,5.21,1.737,4.334,2.786,9.001,4.217,13.493,5.035,15.804,10.054,31.614,15.194,47.376,2.987,9.16,6.192,18.234,9.73,28.61,3.502-10.536,6.714-20.138,9.885-29.756,4.499-13.644,8.933-27.315,13.465-40.946,2.356-7.085,4.752-14.16,7.4-21.113.502-1.319,2.263-2.891,3.464-2.914,11.816-.217,23.636-.131,36.33-.131-1.423,3.4-2.811,6.16-3.761,9.094-2.564,7.916-4.829,15.951-7.418,23.856-3.939,12.024-8.03,23.987-12.097,35.96-3.41,10.042-6.846,20.073-10.33,30.084-2.66,7.643-5.7,15.143-7.981,22.919-.899,3.063-.996,6.99-.093,10.027,5.09,17.114,10.632,34.062,15.946,51.095,3.675,11.778,7.257,23.591,10.833,35.407,3.938,13.015,7.778,26.067,11.748,39.071,1.851,6.063,3.909,12.049,6.218,19.126-8.332-1.255-15.55-2.341-22.768-3.43-5.839-.882-11.667-1.86-17.519-2.61-2.547-.326-3.942-1.209-4.765-4.294-4.116-15.438-8.48-30.798-12.911-46.13-3.735-12.926-7.595-25.81-11.567-38.649-2.507-8.103-5.322-16.09-8.26-24.914-2.481,6.669-4.942,12.58-6.901,18.687-6.075,18.939-11.925,37.967-17.934,56.932-2.589,8.173-5.525,16.216-7.948,24.447-.848,2.881-1.982,3.777-4.57,3.449-11.701-1.479-23.414-2.84-35.742-4.318,1.071-3.5,1.962-6.769,3.068-9.948,1.991-5.721,4.198-11.352,6.161-17.084,5.114-14.932,10.104-29.916,15.222-44.847,3.338-9.741,6.79-19.434,10.231-29.131,3.336-9.399,6.842-18.728,9.99-28.202.669-2.015.686-4.755.032-6.776-5.83-18.014-11.824-35.963-17.881-53.885-3.443-10.188-7.066-20.303-10.662-30.427-3.653-10.284-7.356-20.547-11.082-30.799-.501-1.379-1.261-2.642-2.299-4.777Z"/>
  <path class="cls-1" d="M396.75,64.275h-39.112c-.443-6.056-.336-12.088-1.514-17.803-.685-3.32-2.905-6.83-5.351-9.046-8.379-7.592-25.355-5.64-31.639,3.859-4.171,6.306-3.845,14.151-2.575,21.434,1.835,10.524,7.488,18.8,15.019,25.401,14.428,12.648,29.448,24.537,43.378,37.8,9.553,9.096,16.52,20.559,19.992,34.496,2.512,10.083,3.314,20.045,1.525,30.064-3.945,22.097-14.11,39.1-34.5,46.841-17.263,6.554-34.895,7.966-52.656,3.056-14.763-4.082-25.361-13.469-31.263-29.469-5.114-13.864-5.049-28.002-4.748-42.992,13.089-.564,25.953-1.118,38.906-1.676.415,8.131.591,15.654,1.23,23.13.88,10.3,4.795,15.445,14.043,16.703,9.475,1.289,18.961.891,24.797-9.702.784-1.423,1.811-2.813,2.167-4.371,2.979-13.045.889-25.405-7.451-35.041-8.125-9.387-17.671-17.324-26.754-25.69-3.716-3.423-8.003-6.099-11.774-9.459-12.843-11.443-25.16-23.258-30.548-41.453-3.243-10.951-5.177-22.067-2.769-33.167,2.114-9.744,4.224-19.979,10.831-27.696,7.993-9.336,17.955-15.116,29.461-17.351,15.624-3.035,31.244-3.2,46.602,1.81,17.119,5.585,28.488,17.242,32.731,36.808,1.666,7.685,2.23,15.236,1.973,23.512Z"/>
  <path class="cls-1" d="M254.357,245.19c-37.674,3.695-74.915,7.347-112.455,11.029V0h112.435v33.35h-71.194v69.341c18.886-.676,37.531-1.342,56.44-2.019v34.676c-18.749,1.008-37.396,2.01-56.393,3.03v75.394c23.636-1.789,47.235-3.574,71.167-5.386v36.803Z"/>
  <path class="cls-1" d="M38.454,229.056c26.97-3.077,52.534-5.993,78.592-8.966,0,12.772.061,25.035-.126,37.294-.014.896-1.748,2.395-2.803,2.541-19.695,2.721-39.426,5.133-59.114,7.914-17.972,2.539-32.044,5.605-49.994,8.338-1.412.215-3.192.347-4.999.565,0-1.742.004-3.029,0-4.402-.023-7.827,0-15.666,0-23.47,0-21.615.199-22.41,3.889-34.196,1.149-3.671,2.479-7.452,3.827-11.134,5.16-14.092,10.312-28.189,15.603-42.221,3.523-9.344,7.225-18.606,10.938-27.861,7.307-18.215,14.644-36.417,22.036-54.59,3.517-8.646,7.13-17.247,10.813-25.808,2.359-5.483,4.924-10.858,7.833-17.238-25.611.556-50.053,1.087-74.87,1.626V0h116.942c0,11.592.334,23.063-.191,34.486-.171,3.728-2.473,7.387-3.999,10.973-1.511,3.55-3.418,6.895-4.899,10.458-5.443,13.099-10.774,26.254-16.159,39.382-3.721,9.071-7.524,18.101-11.183,27.203-7.26,18.061-14.493,36.137-21.645,54.251-3.89,9.853-7.545,19.819-11.395,29.692-2.812,7.212-5.769,14.355-9.098,22.611Z"/>
  <path class="cls-1" d="M554.766,0h108.911v32.239h-67.405v69.78h52.76v33.713c-1.349.097-2.593.283-3.834.262-14.847-.256-29.697-.385-44.536-.927-3.995-.146-4.807,1.353-4.789,5.419.133,29.654.071,59.308.07,88.963,0,2.051,0,4.102,0,6.274h-41.176V0Z"/>
  <path class="cls-1" d="M725.353,0v205.895c22.63,1.52,44.975,3.022,67.595,4.541v37.103c-36.238-2.61-72.35-5.211-108.861-7.841-.091-1.925-.255-3.782-.255-5.638-.012-75.857-.011-151.713-.006-227.57,0-6.481.016-6.486,5.908-6.488,11.669-.004,23.338-.001,35.62-.001Z"/>
  <path class="cls-1" d="M452.293,235.161V32.402h-43.03V0h126.373v31.981h-42.773v203.18h-40.571Z"/>
  <path class="cls-1" d="M852.294,0v253.597c-13.949-1.414-27.619-2.801-41.481-4.206V0h41.481Z"/>
</svg>